<?xml version="1.0" encoding="UTF-8"?>
<svg xmlns="http://www.w3.org/2000/svg" xmlns:xlink="http://www.w3.org/1999/xlink" width="64px" height="64px" viewBox="0 0 64 64" version="1.1">
<g id="surface1">
<path style=" stroke:none;fill-rule:nonzero;fill:rgb(0%,0%,0%);fill-opacity:1;" d="M 48 6 C 48 2.6875 45.851562 0 43.199219 0 L 33.601562 0 C 30.949219 0 28.800781 2.6875 28.800781 6 L 28.800781 12 L 22.398438 12 L 22.398438 3 C 22.398438 1.335938 21.328125 0 20 0 C 18.671875 0 17.601562 1.335938 17.601562 3 L 17.601562 12 L 11.199219 12 L 11.199219 3 C 11.199219 1.335938 10.128906 0 8.800781 0 C 7.46875 0 6.398438 1.335938 6.398438 3 L 6.398438 12 L 4.800781 12 C 2.148438 12 0 14.6875 0 18 L 0 58 C 0 61.3125 2.148438 64 4.800781 64 L 59.199219 64 C 61.851562 64 64 61.3125 64 58 L 64 30 C 64 26.6875 61.851562 24 59.199219 24 L 48 24 Z M 57.601562 46 L 57.601562 50 C 57.601562 51.101562 56.878906 52 56 52 L 52.800781 52 C 51.921875 52 51.199219 51.101562 51.199219 50 L 51.199219 46 C 51.199219 44.898438 51.921875 44 52.800781 44 L 56 44 C 56.878906 44 57.601562 44.898438 57.601562 46 Z M 24 52 L 20.800781 52 C 19.921875 52 19.199219 51.101562 19.199219 50 L 19.199219 46 C 19.199219 44.898438 19.921875 44 20.800781 44 L 24 44 C 24.878906 44 25.601562 44.898438 25.601562 46 L 25.601562 50 C 25.601562 51.101562 24.878906 52 24 52 Z M 12.800781 50 C 12.800781 51.101562 12.078125 52 11.199219 52 L 8 52 C 7.121094 52 6.398438 51.101562 6.398438 50 L 6.398438 46 C 6.398438 44.898438 7.121094 44 8 44 L 11.199219 44 C 12.078125 44 12.800781 44.898438 12.800781 46 Z M 56 32 C 56.878906 32 57.601562 32.898438 57.601562 34 L 57.601562 38 C 57.601562 39.101562 56.878906 40 56 40 L 52.800781 40 C 51.921875 40 51.199219 39.101562 51.199219 38 L 51.199219 34 C 51.199219 32.898438 51.921875 32 52.800781 32 Z M 25.601562 22 L 25.601562 26 C 25.601562 27.101562 24.878906 28 24 28 L 20.800781 28 C 19.921875 28 19.199219 27.101562 19.199219 26 L 19.199219 22 C 19.199219 20.898438 19.921875 20 20.800781 20 L 24 20 C 24.878906 20 25.601562 20.898438 25.601562 22 Z M 11.199219 20 C 12.078125 20 12.800781 20.898438 12.800781 22 L 12.800781 26 C 12.800781 27.101562 12.078125 28 11.199219 28 L 8 28 C 7.121094 28 6.398438 27.101562 6.398438 26 L 6.398438 22 C 6.398438 20.898438 7.121094 20 8 20 Z M 25.601562 38 C 25.601562 39.101562 24.878906 40 24 40 L 20.800781 40 C 19.921875 40 19.199219 39.101562 19.199219 38 L 19.199219 34 C 19.199219 32.898438 19.921875 32 20.800781 32 L 24 32 C 24.878906 32 25.601562 32.898438 25.601562 34 Z M 11.199219 40 L 8 40 C 7.121094 40 6.398438 39.101562 6.398438 38 L 6.398438 34 C 6.398438 32.898438 7.121094 32 8 32 L 11.199219 32 C 12.078125 32 12.800781 32.898438 12.800781 34 L 12.800781 38 C 12.800781 39.101562 12.078125 40 11.199219 40 Z M 41.601562 34 L 41.601562 38 C 41.601562 39.101562 40.878906 40 40 40 L 36.800781 40 C 35.921875 40 35.199219 39.101562 35.199219 38 L 35.199219 34 C 35.199219 32.898438 35.921875 32 36.800781 32 L 40 32 C 40.878906 32 41.601562 32.898438 41.601562 34 Z M 40 8 C 40.878906 8 41.601562 8.898438 41.601562 10 L 41.601562 14 C 41.601562 15.101562 40.878906 16 40 16 L 36.800781 16 C 35.921875 16 35.199219 15.101562 35.199219 14 L 35.199219 10 C 35.199219 8.898438 35.921875 8 36.800781 8 Z M 41.601562 22 L 41.601562 26 C 41.601562 27.101562 40.878906 28 40 28 L 36.800781 28 C 35.921875 28 35.199219 27.101562 35.199219 26 L 35.199219 22 C 35.199219 20.898438 35.921875 20 36.800781 20 L 40 20 C 40.878906 20 41.601562 20.898438 41.601562 22 Z M 41.601562 22 "/>
</g>
</svg>
