<?xml version="1.0" encoding="UTF-8"?>
<svg xmlns="http://www.w3.org/2000/svg" xmlns:xlink="http://www.w3.org/1999/xlink" width="64px" height="64px" viewBox="0 0 64 64" version="1.1">
<g id="surface1">
<path style=" stroke:none;fill-rule:nonzero;fill:rgb(0%,0%,0%);fill-opacity:1;" d="M 56 20 C 60.417969 20 64 15.523438 64 10 C 64 4.476562 60.417969 0 56 0 C 51.582031 0 48 4.476562 48 10 C 48 15.523438 51.582031 20 56 20 Z M 5.589844 64 L 57.890625 64 C 61.269531 64 64 60.574219 64 56.363281 C 64 54.960938 63.691406 53.585938 63.109375 52.386719 L 49.910156 25.351562 C 49.5 24.511719 48.78125 24 48 24 C 47.21875 24 46.5 24.511719 46.089844 25.335938 L 41.269531 35.210938 L 28.679688 10.125 C 28.019531 8.800781 26.851562 8 25.601562 8 C 24.351562 8 23.191406 8.800781 22.519531 10.125 L 0.859375 53.300781 C 0.300781 54.414062 0 55.699219 0 57.011719 C 0 60.875 2.5 64 5.589844 64 Z M 5.589844 64 "/>
</g>
</svg>
