<?xml version="1.0" encoding="UTF-8"?>
<svg xmlns="http://www.w3.org/2000/svg" xmlns:xlink="http://www.w3.org/1999/xlink" width="64px" height="64px" viewBox="0 0 64 64" version="1.1">
<g id="surface1">
<path style=" stroke:none;fill-rule:nonzero;fill:rgb(0%,0%,0%);fill-opacity:1;" d="M 17.777344 0 C 15.8125 0 14.222656 1.789062 14.222656 4 C 14.222656 6.210938 15.8125 8 17.777344 8 L 23.410156 8 L 1.042969 33.175781 C -0.34375 34.738281 -0.34375 37.273438 1.042969 38.835938 C 2.433594 40.398438 4.6875 40.398438 6.078125 38.835938 L 28.445312 13.664062 L 28.445312 20 C 28.445312 22.210938 30.035156 24 32 24 C 33.964844 24 35.554688 22.210938 35.554688 20 L 35.554688 4 C 35.554688 1.789062 33.964844 0 32 0 Z M 64 10 C 64 6.6875 61.613281 4 58.667969 4 C 55.722656 4 53.332031 6.6875 53.332031 10 C 53.332031 13.3125 55.722656 16 58.667969 16 C 61.613281 16 64 13.3125 64 10 Z M 49.777344 26 C 49.777344 22.6875 47.390625 20 44.445312 20 C 41.5 20 39.109375 22.6875 39.109375 26 C 39.109375 29.3125 41.5 32 44.445312 32 C 47.390625 32 49.777344 29.3125 49.777344 26 Z M 44.445312 48 C 47.390625 48 49.777344 45.3125 49.777344 42 C 49.777344 38.6875 47.390625 36 44.445312 36 C 41.5 36 39.109375 38.6875 39.109375 42 C 39.109375 45.3125 41.5 48 44.445312 48 Z M 49.777344 58 C 49.777344 54.6875 47.390625 52 44.445312 52 C 41.5 52 39.109375 54.6875 39.109375 58 C 39.109375 61.3125 41.5 64 44.445312 64 C 47.390625 64 49.777344 61.3125 49.777344 58 Z M 64 58 C 64 54.6875 61.613281 52 58.667969 52 C 55.722656 52 53.332031 54.6875 53.332031 58 C 53.332031 61.3125 55.722656 64 58.667969 64 C 61.613281 64 64 61.3125 64 58 Z M 30.222656 48 C 33.167969 48 35.554688 45.3125 35.554688 42 C 35.554688 38.6875 33.167969 36 30.222656 36 C 27.277344 36 24.890625 38.6875 24.890625 42 C 24.890625 45.3125 27.277344 48 30.222656 48 Z M 35.554688 58 C 35.554688 54.6875 33.167969 52 30.222656 52 C 27.277344 52 24.890625 54.6875 24.890625 58 C 24.890625 61.3125 27.277344 64 30.222656 64 C 33.167969 64 35.554688 61.3125 35.554688 58 Z M 16 64 C 18.945312 64 21.332031 61.3125 21.332031 58 C 21.332031 54.6875 18.945312 52 16 52 C 13.054688 52 10.667969 54.6875 10.667969 58 C 10.667969 61.3125 13.054688 64 16 64 Z M 64 42 C 64 38.6875 61.613281 36 58.667969 36 C 55.722656 36 53.332031 38.6875 53.332031 42 C 53.332031 45.3125 55.722656 48 58.667969 48 C 61.613281 48 64 45.3125 64 42 Z M 58.667969 32 C 61.613281 32 64 29.3125 64 26 C 64 22.6875 61.613281 20 58.667969 20 C 55.722656 20 53.332031 22.6875 53.332031 26 C 53.332031 29.3125 55.722656 32 58.667969 32 Z M 58.667969 32 "/>
</g>
</svg>
