<?xml version="1.0" encoding="UTF-8"?>
<svg xmlns="http://www.w3.org/2000/svg" xmlns:xlink="http://www.w3.org/1999/xlink" width="64px" height="64px" viewBox="0 0 64 64" version="1.1">
<g id="surface1">
<path style=" stroke:none;fill-rule:nonzero;fill:rgb(0%,0%,0%);fill-opacity:1;" d="M 8 8 C 8 5.789062 6.210938 4 4 4 C 1.789062 4 0 5.789062 0 8 L 0 50 C 0 55.523438 4.476562 60 10 60 L 60 60 C 62.210938 60 64 58.210938 64 56 C 64 53.789062 62.210938 52 60 52 L 10 52 C 8.898438 52 8 51.101562 8 50 Z M 20 44 L 56 44 C 58.210938 44 60 42.210938 60 40 L 60 31.476562 C 60 30.523438 59.664062 29.601562 59.039062 28.875 L 50.8125 19.273438 C 49.300781 17.5 46.601562 17.398438 44.949219 19.050781 L 42.324219 21.675781 C 41.074219 22.925781 39.023438 22.824219 37.898438 21.476562 L 33 15.601562 C 31.425781 13.710938 28.539062 13.675781 26.914062 15.523438 L 16.988281 26.875 C 16.351562 27.601562 16 28.539062 16 29.511719 L 16 40.011719 C 16 42.226562 17.789062 44.011719 20 44.011719 Z M 20 44 "/>
</g>
</svg>
